# xmcd CD database file generated by OrangeCD 6.5
#
# Track frame offsets:
#	182
#	12335
#	29037
#	48275
#	62585
#	82155
#	95885
#	111547
#	123792
#	141392
#
# Disc length: 2077 seconds
#
# Revision: 4
# Processed by: cddbd v1.5.2PL0 Copyright (c) Steve Scherf et al.
# Submitted via: OrangeCD 6.5
#
DISCID=92081b0a
DTITLE=Marcia Ball - Gatorythms
DYEAR=1989
DGENRE=Other
TTITLE0=How You Carry On
TTITLE1=La Ti Da
TTITLE2=The Power Of Love
TTITLE3=Mobile
TTITLE4=Find Another Fool
TTITLE5=Mama's Cooking
TTITLE6=What's A Girl To Do
TTITLE7=Daddy Said
TTITLE8=You'll Come Around
TTITLE9=Red Hot
EXTD=
EXTT0=
EXTT1=
EXTT2=
EXTT3=
EXTT4=
EXTT5=
EXTT6=
EXTT7=
EXTT8=
EXTT9=
PLAYORDER=
